<mxfile host="app.diagrams.net" modified="2022-03-06T07:17:24.399Z" agent="5.0 (Macintosh; Intel Mac OS X 10_15_7) AppleWebKit/537.36 (KHTML, like Gecko) Chrome/99.0.4844.51 Safari/537.36" etag="q-DaXP8LORoApBA9M73U" version="16.6.5" type="github">
  <diagram id="sLOqeaHe7csegfCdvvJ5" name="第 1 页">
    <mxGraphModel dx="1966" dy="803" grid="0" gridSize="10" guides="1" tooltips="1" connect="1" arrows="1" fold="1" page="0" pageScale="1" pageWidth="827" pageHeight="1169" math="0" shadow="0">
      <root>
        <mxCell id="0" />
        <mxCell id="1" parent="0" />
        <mxCell id="HjAwUN_YL50iSkioln3S-1" value="" style="ellipse;whiteSpace=wrap;html=1;hachureGap=4;" vertex="1" parent="1">
          <mxGeometry x="-8" y="125" width="243" height="237" as="geometry" />
        </mxCell>
        <mxCell id="HjAwUN_YL50iSkioln3S-6" value="冲动" style="text;strokeColor=none;fillColor=none;html=1;align=center;verticalAlign=middle;whiteSpace=wrap;rounded=0;hachureGap=4;" vertex="1" parent="1">
          <mxGeometry x="227" y="181" width="60" height="30" as="geometry" />
        </mxCell>
        <mxCell id="HjAwUN_YL50iSkioln3S-7" value="诱因" style="text;html=1;align=center;verticalAlign=middle;resizable=0;points=[];autosize=1;strokeColor=none;fillColor=none;hachureGap=4;" vertex="1" parent="1">
          <mxGeometry x="79" y="91" width="34" height="18" as="geometry" />
        </mxCell>
        <mxCell id="HjAwUN_YL50iSkioln3S-8" value="觉察" style="text;html=1;align=center;verticalAlign=middle;resizable=0;points=[];autosize=1;strokeColor=none;fillColor=none;hachureGap=4;" vertex="1" parent="1">
          <mxGeometry x="206" y="325" width="34" height="18" as="geometry" />
        </mxCell>
        <mxCell id="HjAwUN_YL50iSkioln3S-9" value="选择" style="text;html=1;align=center;verticalAlign=middle;resizable=0;points=[];autosize=1;strokeColor=none;fillColor=none;hachureGap=4;" vertex="1" parent="1">
          <mxGeometry x="-9" y="325" width="34" height="18" as="geometry" />
        </mxCell>
        <mxCell id="HjAwUN_YL50iSkioln3S-10" value="行为" style="text;html=1;align=center;verticalAlign=middle;resizable=0;points=[];autosize=1;strokeColor=none;fillColor=none;hachureGap=4;" vertex="1" parent="1">
          <mxGeometry x="-38" y="187" width="34" height="18" as="geometry" />
        </mxCell>
        <mxCell id="HjAwUN_YL50iSkioln3S-11" value="" style="edgeStyle=none;orthogonalLoop=1;jettySize=auto;html=1;rounded=0;endArrow=open;startSize=14;endSize=14;sourcePerimeterSpacing=8;targetPerimeterSpacing=8;curved=1;" edge="1" parent="1">
          <mxGeometry width="120" relative="1" as="geometry">
            <mxPoint x="263" y="217" as="sourcePoint" />
            <mxPoint x="240" y="314" as="targetPoint" />
            <Array as="points">
              <mxPoint x="261" y="279" />
            </Array>
          </mxGeometry>
        </mxCell>
        <mxCell id="HjAwUN_YL50iSkioln3S-13" value="" style="edgeStyle=none;orthogonalLoop=1;jettySize=auto;html=1;rounded=0;endArrow=open;startSize=14;endSize=14;sourcePerimeterSpacing=8;targetPerimeterSpacing=8;curved=1;" edge="1" parent="1">
          <mxGeometry width="120" relative="1" as="geometry">
            <mxPoint x="212" y="355" as="sourcePoint" />
            <mxPoint x="20" y="359" as="targetPoint" />
            <Array as="points">
              <mxPoint x="119" y="418" />
            </Array>
          </mxGeometry>
        </mxCell>
        <mxCell id="HjAwUN_YL50iSkioln3S-14" value="" style="edgeStyle=none;orthogonalLoop=1;jettySize=auto;html=1;rounded=0;endArrow=open;startSize=14;endSize=14;sourcePerimeterSpacing=8;targetPerimeterSpacing=8;curved=1;" edge="1" parent="1">
          <mxGeometry width="120" relative="1" as="geometry">
            <mxPoint x="-19" y="317" as="sourcePoint" />
            <mxPoint x="-28" y="214" as="targetPoint" />
            <Array as="points">
              <mxPoint x="-48" y="269" />
            </Array>
          </mxGeometry>
        </mxCell>
        <mxCell id="HjAwUN_YL50iSkioln3S-15" value="" style="edgeStyle=none;orthogonalLoop=1;jettySize=auto;html=1;rounded=0;endArrow=open;startSize=14;endSize=14;sourcePerimeterSpacing=8;targetPerimeterSpacing=8;curved=1;" edge="1" parent="1">
          <mxGeometry width="120" relative="1" as="geometry">
            <mxPoint x="-19" y="170" as="sourcePoint" />
            <mxPoint x="68" y="98" as="targetPoint" />
            <Array as="points">
              <mxPoint x="-1" y="126" />
            </Array>
          </mxGeometry>
        </mxCell>
        <mxCell id="HjAwUN_YL50iSkioln3S-16" value="" style="edgeStyle=none;orthogonalLoop=1;jettySize=auto;html=1;rounded=0;endArrow=open;startSize=14;endSize=14;sourcePerimeterSpacing=8;targetPerimeterSpacing=8;curved=1;" edge="1" parent="1">
          <mxGeometry width="120" relative="1" as="geometry">
            <mxPoint x="127" y="95" as="sourcePoint" />
            <mxPoint x="246" y="170" as="targetPoint" />
            <Array as="points">
              <mxPoint x="200" y="104" />
            </Array>
          </mxGeometry>
        </mxCell>
      </root>
    </mxGraphModel>
  </diagram>
</mxfile>
